<svg xmlns="http://www.w3.org/2000/svg" viewBox="0 0 326.29 201.86"><g id="Layer_2" data-name="Layer 2"><g id="Journal_Screen_OUT_copy" data-name="Journal Screen OUT copy"><path d="M204.41,183.49h-8.29V192H191V170.65h14.27v4h-9.13v4.91h8.29Z" fill="#41642f"/><path d="M211.5,192h-4.95v-22.5h4.95Z" fill="#41642f"/><path d="M220,185.07l2.64-8.94h5.29l-6.46,18.5-.28.68a4.9,4.9,0,0,1-4.86,3.07,7.49,7.49,0,0,1-2-.29v-3.51h.64a3.33,3.33,0,0,0,1.59-.31,1.81,1.81,0,0,0,.82-1.07l.39-1.06-5.51-16h5.28Z" fill="#41642f"/><path d="M248.6,183.49h-8.29V192h-5.14V170.65h14.26v4h-9.12v4.91h8.29Z" fill="#41642f"/><path d="M250.44,172.05a2.19,2.19,0,0,1,.76-1.73,3.22,3.22,0,0,1,4,0,2.34,2.34,0,0,1,0,3.45,3.22,3.22,0,0,1-4,0A2.17,2.17,0,0,1,250.44,172.05ZM255.68,192h-5V176.13h5Z" fill="#41642f"/><path d="M266.15,187.53a1.13,1.13,0,0,0-.66-1,9.61,9.61,0,0,0-2.5-.79,11.47,11.47,0,0,1-3.05-1.08,5,5,0,0,1-1.83-1.62,3.85,3.85,0,0,1-.63-2.18,4.39,4.39,0,0,1,1.8-3.6,7.45,7.45,0,0,1,4.72-1.41,8.21,8.21,0,0,1,5,1.42,4.44,4.44,0,0,1,1.9,3.74H266c0-1.27-.67-1.91-2-1.91a2,2,0,0,0-1.3.43,1.35,1.35,0,0,0-.53,1.08,1.23,1.23,0,0,0,.65,1.07,6,6,0,0,0,2.06.67,19,19,0,0,1,2.48.63q3.57,1.23,3.57,4.41a4.14,4.14,0,0,1-1.92,3.53,8.46,8.46,0,0,1-5,1.37,8.56,8.56,0,0,1-3.63-.74,6,6,0,0,1-2.49-2,4.48,4.48,0,0,1-.9-2.65h4.62a1.89,1.89,0,0,0,.73,1.6,3,3,0,0,0,1.8.51,2.42,2.42,0,0,0,1.52-.41A1.32,1.32,0,0,0,266.15,187.53Z" fill="#41642f"/><path d="M277.18,177.83a5.41,5.41,0,0,1,8-.44,7,7,0,0,1,1.37,4.59v10h-5v-9.89a2.76,2.76,0,0,0-.52-1.85,2.21,2.21,0,0,0-1.74-.59,2.35,2.35,0,0,0-2.15,1V192h-4.94v-22.5h4.94Z" fill="#41642f"/><path d="M288.38,172.05a2.19,2.19,0,0,1,.76-1.73,2.88,2.88,0,0,1,2-.68,2.84,2.84,0,0,1,2,.68,2.32,2.32,0,0,1,0,3.45,2.84,2.84,0,0,1-2,.68,2.88,2.88,0,0,1-2-.68A2.17,2.17,0,0,1,288.38,172.05ZM293.62,192h-4.95V176.13h4.95Z" fill="#41642f"/><path d="M300.32,176.13l.17,1.86a5.37,5.37,0,0,1,4.52-2.15,4.52,4.52,0,0,1,3.7,1.48,7,7,0,0,1,1.27,4.45V192h-5V182a2.65,2.65,0,0,0-.49-1.77,2.25,2.25,0,0,0-1.75-.56,2.36,2.36,0,0,0-2.16,1.14V192H295.7V176.13Z" fill="#41642f"/><path d="M311.26,183.94a10.67,10.67,0,0,1,.79-4.25,6.44,6.44,0,0,1,2.27-2.85,6,6,0,0,1,3.44-1,4.76,4.76,0,0,1,3.87,1.67l.18-1.38h4.48v15.25a6.75,6.75,0,0,1-1,3.64,6.32,6.32,0,0,1-2.82,2.38,10.41,10.41,0,0,1-4.28.82,9,9,0,0,1-3.38-.66,6.15,6.15,0,0,1-2.5-1.71l2.07-2.9a4.54,4.54,0,0,0,3.63,1.63c2.19,0,3.28-1.13,3.28-3.37v-.5a4.63,4.63,0,0,1-3.58,1.57,5.72,5.72,0,0,1-4.69-2.22,9.21,9.21,0,0,1-1.79-5.94Zm4.95.31a5.68,5.68,0,0,0,.73,3.08,2.32,2.32,0,0,0,2.06,1.14,2.61,2.61,0,0,0,2.32-1.07v-6.67a2.54,2.54,0,0,0-2.3-1.08,2.32,2.32,0,0,0-2.06,1.18A6.38,6.38,0,0,0,316.21,184.25Z" fill="#41642f"/><path d="M324.14,162.07A162.07,162.07,0,0,0,0,162.07Z" fill="#c4d9b6"/><circle cx="133.32" cy="136.84" r="65.02" transform="translate(-23.11 246.52) rotate(-80.78)" fill="#c4d9b6"/><path d="M234.72,79.58c-21.08-19.71-45.33-31.39-73.48-36,2.94-10.24,5.65-20,8.64-29.71a4.4,4.4,0,0,1,3.44-2.34c33,2.37,62,14,86.86,36.87Z" fill="#f4f3df"/><path d="M67.67,64.84,57.46,52.44C86.5,25.52,120.68,12.72,160.11,11c-2.82,10.49-5.54,20.63-8.44,31.45C121.36,40.88,93.27,48,67.67,64.84Z" fill="#f4f3df"/><path d="M58.87,71.32C41.2,86,27.81,103.25,18.92,124.34,17,111.58,33.37,77.83,49.54,61Z" fill="#f4f3df"/><path d="M67.26,64.49a131.21,131.21,0,0,1,73.36-22.28,133.38,133.38,0,0,1,13.33.67l6.69-30.53a149.35,149.35,0,0,0-103,42.36Z"/><path d="M169.81,12.53,162.9,44.09a131.58,131.58,0,0,1,69.8,35.6l29.09-29.38A149.28,149.28,0,0,0,169.81,12.53Z"/><path d="M51.36,61.17A149.48,149.48,0,0,0,14.6,135.09,132.18,132.18,0,0,1,59.87,69.81Z"/><path d="M268.33,56.49l-29.4,29.7a131.57,131.57,0,0,1,29.83,56.67l41.94-.33A149.52,149.52,0,0,0,268.33,56.49Z"/><path d="M317.15,141.68a157,157,0,0,0-44.21-89.77A6.54,6.54,0,0,0,268.32,50h-.05a6.49,6.49,0,0,0-2.16-4.54A156.72,156.72,0,0,0,170.13,6a6.51,6.51,0,0,0-4.81,1.82,6.33,6.33,0,0,0-4.74-2A155.66,155.66,0,0,0,53.1,50a6.54,6.54,0,0,0-2,4.59v0a6.51,6.51,0,0,0-4.57,2.1A155.89,155.89,0,0,0,8.21,133.91a6.51,6.51,0,0,0,4.85,7.49,6.71,6.71,0,0,0,1.55.19,6.46,6.46,0,0,0,6.2-4.58A124.88,124.88,0,0,1,63.86,75a6.5,6.5,0,0,0,2.42-4,7.93,7.93,0,0,0,1,.08,6.5,6.5,0,0,0,3.62-1.1,124.7,124.7,0,0,1,69.74-21.18c4.22,0,8.49.21,12.68.63a6.47,6.47,0,0,0,4.5-1.22,6.58,6.58,0,0,0,4,2.38,124.57,124.57,0,0,1,66.35,33.84,6.4,6.4,0,0,0,4.28,1.84,6.49,6.49,0,0,0,1.64,4.35,125.41,125.41,0,0,1,28.37,53.86,6.49,6.49,0,0,0,6.36,5h0l41.93-.32a6.5,6.5,0,0,0,6.4-7.35Z" fill="#f4f3df"/><path d="M67.26,62.38A131.21,131.21,0,0,1,140.62,40.1a133.38,133.38,0,0,1,13.33.67l6.69-30.53a149.35,149.35,0,0,0-103,42.36Z" fill="#f1c421"/><path d="M169.81,10.42,162.9,42a131.58,131.58,0,0,1,69.8,35.6L261.79,48.2A149.28,149.28,0,0,0,169.81,10.42Z" fill="#65bb47"/><path d="M51.36,59.06A149.48,149.48,0,0,0,14.6,133,132.18,132.18,0,0,1,59.87,67.7Z" fill="#7b372e"/><path d="M268.33,54.39l-29.4,29.69a131.57,131.57,0,0,1,29.83,56.67l41.94-.33A149.46,149.46,0,0,0,268.33,54.39Z" fill="#41642f"/><path d="M124.61,122.37c-20.44-1.7-37.76-10.27-53.3-23.82A62.89,62.89,0,0,1,76.78,95c3.79-2,7.67-3.73,11.52-5.58A77.82,77.82,0,0,1,118.36,82c13.49-.67,26.1,2.71,38.07,8.71,3.16,1.58,6.14,3.51,9.25,5.18a4.11,4.11,0,0,0,2.38.35c3.32-.47,6.62-1.06,9.69-1.57.21-2.36.1-5,.75-7.44,1.82-6.85,9-10.79,16.18-9.2A13.77,13.77,0,0,1,205,93.33a13.61,13.61,0,0,1-14.54,11.51,2.55,2.55,0,0,0-2.47,1c-2.91,3.39-6.91,4.77-11.1,5.74-.79.18-1.59.3-2.48.46.22,4.24-2.51,6.54-5.77,8.1a96.05,96.05,0,0,1-9.44,3.43c.26,2.73-1.41,4.78-3.72,6.44-4.41,3.17-9.46,4.23-14.78,4.45a3.74,3.74,0,0,0-1.95.57c-3.2,2.27-6.4,4.54-9.49,6.95A14.92,14.92,0,0,0,124.06,158,15.11,15.11,0,0,0,137,168.86c5.85.62,10.36-2,14.46-6.19l-7.84-2.32,30-17.87.27.28-4.58,7.64c-2.83,4.7-5.42,9.58-8.54,14.08-6.07,8.75-14.14,13.91-25.28,12.75-11.94-1.24-21.54-13.08-20.4-25.06a23.72,23.72,0,0,1,10.31-17.92l1.58-1.16s0-.09.22-.41l-2.28,1c-15.1,6.81-30.77,11.47-47.37,12.59q-3.09.21-6.2.21c-2,0-3.2-1-3.21-2.69s1.13-2.72,3.16-2.75c16.91-.23,32.9-4.46,48.37-11a3.1,3.1,0,0,0,1.26-.84c-1.31.29-2.61.61-3.92.88s-2.77.55-4.16.82a120.76,120.76,0,0,1-33.78,1.87c-2.15-.2-3.36-1.37-3.18-3.12s1.53-2.63,3.75-2.41C95,128.71,109.88,126.55,124.61,122.37Zm36.51-22.79C148.52,92,135.32,87.13,120.6,87.4c-14.3.27-27.41,4.71-40.16,11.81,3.43,2.23,6.49,4.39,9.72,6.28,15.39,9,31.76,13.45,49.69,10.24,1.65-.3,3.06-.61,3.81-2.44a5.3,5.3,0,0,1,2.29-2.46c2.62-1.4,5.34-2.62,8.08-3.76a23.57,23.57,0,0,1,3.83-.86C157.52,103.34,159.11,101.44,161.12,99.58Zm35.43-7.39a5.2,5.2,0,0,0-10.23-1.82,5.2,5.2,0,1,0,10.23,1.82Z" fill="#f4f3df"/><path d="M174,91.25c-2,.37-3.72.77-5.49,1-.47,0-1.13-.5-1.5-.94A49.41,49.41,0,0,0,147.6,76.81a65.33,65.33,0,0,0-24.1-4.47,8.35,8.35,0,0,0-.9.15l2.62,5c-2,0-3.9,0-5.77,0a1.22,1.22,0,0,1-.81-.66c-1.37-3-2.7-6-4.17-9.37a69.87,69.87,0,0,1,33.7,3.63C158.86,75.06,167.22,82,174,91.25Z" fill="#f4f3df"/><path d="M258.38,117l28.13-1.45c3.61-.19,6.4-2.22,6.37-4.64s-2.86-4.39-6.47-4.5l-33.36-1" fill="#41642f" stroke="#f4f1de" stroke-miterlimit="10" stroke-width="5"/><path d="M286.41,106.4l-146.6-4.24A10.47,10.47,0,0,0,140,123.1l146.47-7.56c3.61-.19,6.4-2.22,6.37-4.64S290,106.51,286.41,106.4Z" fill="#41642f"/><circle cx="139.92" cy="112.63" r="3.06" fill="#f4f3df"/></g></g></svg>