<svg xmlns="http://www.w3.org/2000/svg" viewBox="0 0 328.58 201.86"><g id="Layer_2" data-name="Layer 2"><g id="Journal_Screen_OUT_copy" data-name="Journal Screen OUT copy"><path d="M208.44,189.35a8.39,8.39,0,0,1-3.47,2.12,14.87,14.87,0,0,1-5,.81,8.93,8.93,0,0,1-6.69-2.57,10.33,10.33,0,0,1-2.68-7.13l0-1.85a12.76,12.76,0,0,1,1.11-5.5,8.35,8.35,0,0,1,3.19-3.62,9,9,0,0,1,4.8-1.26,9.44,9.44,0,0,1,6.19,1.82,7.76,7.76,0,0,1,2.57,5.44h-5a4.06,4.06,0,0,0-1.15-2.55,3.71,3.71,0,0,0-2.49-.76,3.37,3.37,0,0,0-3,1.64,8.82,8.82,0,0,0-1.06,4.69v1.29a8.56,8.56,0,0,0,1.09,4.8,3.84,3.84,0,0,0,3.43,1.6,4.34,4.34,0,0,0,3-.89v-3.31h-3.57v-3.53h8.71Z" fill="#41642f"/><path d="M219.83,192a5.83,5.83,0,0,1-.47-1.42,4.6,4.6,0,0,1-3.81,1.72,5.62,5.62,0,0,1-3.8-1.36,4.3,4.3,0,0,1-1.57-3.41,4.43,4.43,0,0,1,1.9-3.89,9.71,9.71,0,0,1,5.54-1.32h1.52v-.84q0-2.19-1.89-2.19A1.54,1.54,0,0,0,215.5,181h-4.94a4.42,4.42,0,0,1,2-3.73,8.23,8.23,0,0,1,5-1.43,7.19,7.19,0,0,1,4.79,1.48,5.16,5.16,0,0,1,1.8,4.06v7a7.16,7.16,0,0,0,.68,3.34V192Zm-3.09-3.22a2.68,2.68,0,0,0,1.53-.4,2.37,2.37,0,0,0,.87-.89v-2.53h-1.43q-2.58,0-2.58,2.31a1.42,1.42,0,0,0,.45,1.09A1.65,1.65,0,0,0,216.74,188.76Z" fill="#41642f"/><path d="M231.19,176.13l.16,1.86a5.47,5.47,0,0,1,4.53-2.15,4,4,0,0,1,4.06,2.39,5.27,5.27,0,0,1,4.66-2.39q4.82,0,5,5.83V192h-5V182a3,3,0,0,0-.41-1.77,1.75,1.75,0,0,0-1.5-.56,2.33,2.33,0,0,0-2.18,1.3v11h-5V182a3.2,3.2,0,0,0-.39-1.8,1.73,1.73,0,0,0-1.51-.56,2.36,2.36,0,0,0-2.17,1.3v11h-4.94V176.13Z" fill="#41642f"/><path d="M259.73,192.28a8.14,8.14,0,0,1-5.9-2.18,7.53,7.53,0,0,1-2.26-5.66V184a9.6,9.6,0,0,1,.91-4.29,6.59,6.59,0,0,1,2.62-2.88,8,8,0,0,1,4.11-1,6.87,6.87,0,0,1,5.27,2.07,8.14,8.14,0,0,1,1.93,5.78v1.92H256.6a3.53,3.53,0,0,0,1.16,2.1,3.46,3.46,0,0,0,2.31.76,4.45,4.45,0,0,0,3.66-1.64l2.26,2.66a6.32,6.32,0,0,1-2.62,2A8.86,8.86,0,0,1,259.73,192.28Zm-.55-12.63c-1.45,0-2.31,1-2.58,2.87h5v-.38a2.46,2.46,0,0,0-.6-1.84A2.4,2.4,0,0,0,259.18,179.65Z" fill="#41642f"/><path d="M288.93,183.49h-8.29V192H275.5V170.65h14.26v4h-9.12v4.91h8.29Z" fill="#41642f"/><path d="M291.34,172.05a2.19,2.19,0,0,1,.76-1.73,3.22,3.22,0,0,1,4,0,2.34,2.34,0,0,1,0,3.45,3.22,3.22,0,0,1-4,0A2.17,2.17,0,0,1,291.34,172.05ZM296.58,192h-4.95V176.13h4.95Z" fill="#41642f"/><path d="M307.62,187.53a1.13,1.13,0,0,0-.66-1,9.61,9.61,0,0,0-2.5-.79,11.47,11.47,0,0,1-3-1.08,5,5,0,0,1-1.83-1.62,3.85,3.85,0,0,1-.63-2.18,4.39,4.39,0,0,1,1.8-3.6,7.43,7.43,0,0,1,4.72-1.41,8.21,8.21,0,0,1,5,1.42,4.44,4.44,0,0,1,1.9,3.74h-5c0-1.27-.67-1.91-2-1.91a2,2,0,0,0-1.3.43,1.35,1.35,0,0,0-.53,1.08,1.23,1.23,0,0,0,.65,1.07,6,6,0,0,0,2.06.67,19,19,0,0,1,2.48.63q3.57,1.23,3.57,4.41a4.14,4.14,0,0,1-1.92,3.53,8.46,8.46,0,0,1-5,1.37,8.56,8.56,0,0,1-3.63-.74,6,6,0,0,1-2.49-2,4.48,4.48,0,0,1-.9-2.65h4.62a1.89,1.89,0,0,0,.73,1.6,3,3,0,0,0,1.8.51,2.42,2.42,0,0,0,1.52-.41A1.32,1.32,0,0,0,307.62,187.53Z" fill="#41642f"/><path d="M319.22,177.83a5.41,5.41,0,0,1,8-.44,7,7,0,0,1,1.37,4.59v10h-5v-9.89a2.82,2.82,0,0,0-.51-1.85,2.21,2.21,0,0,0-1.74-.59,2.35,2.35,0,0,0-2.15,1V192h-4.94v-22.5h4.94Z" fill="#41642f"/><path d="M0,162.07a162.07,162.07,0,0,1,324.14,0" fill="#c4d9b6"/><circle cx="133.32" cy="136.84" r="65.02" transform="translate(-23.11 246.52) rotate(-80.78)" fill="#c4d9b6"/><path d="M104.9,92.08C125.56,99,134.12,116,128.29,132.37c2.58-.11,5.12-.37,7.68-.29a9,9,0,0,1,7.64,4.65,7,7,0,0,1-.9,9c-3.44,3.56-7.29,6.31-12.56,6.19a71.14,71.14,0,0,1-7.6-1.05c-4.38-.58-8.71-.71-12.78.88-.65.25-1.27.58-2.42,1.12a41.39,41.39,0,0,0,3.79,4c2.76,2.22,5.66,4.24,8.49,6.38a13.4,13.4,0,0,1,5.52,11c0,2.69,0,5.39.25,8.08a27.47,27.47,0,0,0,1.11,4.31,23.81,23.81,0,0,0,8.54-8.85c2.29-4.29,4.25-8.79,6.28-13.24a16.4,16.4,0,0,1,7.29-7.5c6.95-3.91,13.25-8.75,16.87-16,2.63-5.28,5.21-11.18,5.51-17.12.91-18.16-7-32.56-26.49-37.61-13.76-3.58-26.66-1.34-38.54,5.06A8.69,8.69,0,0,0,104.9,92.08Z" fill="#f4f3df"/><path d="M102.65,95.55c3.83,2,7.82,3.89,11.36,6.43,8.89,6.35,15.19,17,9.06,30.56a5.18,5.18,0,0,1-2.71,2.46c-8,3.13-16.5,1.63-25,.47a1.86,1.86,0,0,1-1.48-2.9c.27-.52.65-1,1-1.47,3-4.78.49-10.1-5.29-11-1.49-.23-3-.16-4.49-.5-2-.46-2.75-2.35-1.16-3.5,3-2.16,4.21-5.53,5.84-8.63a31.12,31.12,0,0,1,10.89-12.25A4.94,4.94,0,0,1,102.65,95.55Zm-.12,17.84c2.51-1.37,2.92-3.75,1.82-6.44a5.22,5.22,0,0,0-6.67-2.74c-2.19,1.07-3,3.94-1.74,6.46S100.24,114.64,102.53,113.39Z" fill="#f4f3df"/><path d="M158.37,88.23a29.37,29.37,0,0,0-14.7-13.46,114.73,114.73,0,0,0-14-4.19c-4.24-1.11-8.52-2-12.71-2.9l.3,15C130.94,79.49,144.8,79.79,158.37,88.23Z" fill="#f4f3df"/><path d="M183,131.13c-2.77-5.09-8.42-6.88-12.37-11.39-.93,3.58-1.75,6.79-2.68,10.36l14.79,1.8Z" fill="#f4f3df"/><path d="M133.45,143.19c2.13-.39,4.29-.72,6.38-1.24.48-.12,1.16-1.13,1-1.35a21.87,21.87,0,0,0-2.66-3.67,5.71,5.71,0,0,0-2,1.39c-1.15,1.36-2.16,2.85-3.22,4.29Z" fill="#f4f3df"/><path d="M234.72,79.58c-21.08-19.71-45.33-31.39-73.48-36,2.94-10.24,5.65-20,8.64-29.71a4.4,4.4,0,0,1,3.44-2.34c33,2.37,62,14,86.86,36.87Z" fill="#f4f3df"/><path d="M67.67,64.84,57.46,52.44C86.5,25.52,120.68,12.72,160.11,11c-2.82,10.49-5.54,20.63-8.44,31.45C121.36,40.88,93.27,48,67.67,64.84Z" fill="#f4f3df"/><path d="M58.87,71.32C41.2,86,27.81,103.25,18.92,124.34,17,111.58,33.37,77.83,49.54,61Z" fill="#f4f3df"/><path d="M67.26,64.49a131.21,131.21,0,0,1,73.36-22.28,133.38,133.38,0,0,1,13.33.67l6.69-30.53a149.35,149.35,0,0,0-103,42.36Z"/><path d="M169.81,12.53,162.9,44.09a131.58,131.58,0,0,1,69.8,35.6l29.09-29.38A149.28,149.28,0,0,0,169.81,12.53Z"/><path d="M51.36,61.17A149.48,149.48,0,0,0,14.6,135.09,132.18,132.18,0,0,1,59.87,69.81Z"/><path d="M268.33,56.49l-29.4,29.7a131.57,131.57,0,0,1,29.83,56.67l41.94-.33A149.52,149.52,0,0,0,268.33,56.49Z"/><path d="M317.15,141.68a157,157,0,0,0-44.21-89.77A6.54,6.54,0,0,0,268.32,50h-.05a6.49,6.49,0,0,0-2.16-4.54A156.72,156.72,0,0,0,170.13,6a6.51,6.51,0,0,0-4.81,1.82,6.33,6.33,0,0,0-4.74-2A155.66,155.66,0,0,0,53.1,50a6.54,6.54,0,0,0-2,4.59v0a6.51,6.51,0,0,0-4.57,2.1A155.89,155.89,0,0,0,8.21,133.91a6.51,6.51,0,0,0,4.85,7.49,6.71,6.71,0,0,0,1.55.19,6.46,6.46,0,0,0,6.2-4.58A124.88,124.88,0,0,1,63.86,75a6.5,6.5,0,0,0,2.42-4,7.93,7.93,0,0,0,1,.08,6.5,6.5,0,0,0,3.62-1.1,124.7,124.7,0,0,1,69.74-21.18c4.22,0,8.49.21,12.68.63a6.47,6.47,0,0,0,4.5-1.22,6.58,6.58,0,0,0,4,2.38,124.57,124.57,0,0,1,66.35,33.84,6.4,6.4,0,0,0,4.28,1.84,6.49,6.49,0,0,0,1.64,4.35,125.41,125.41,0,0,1,28.37,53.86,6.49,6.49,0,0,0,6.36,5h0l41.93-.32a6.5,6.5,0,0,0,6.4-7.35Z" fill="#f4f3df"/><path d="M67.26,62.38A131.21,131.21,0,0,1,140.62,40.1a133.38,133.38,0,0,1,13.33.67l6.69-30.53a149.35,149.35,0,0,0-103,42.36Z" fill="#f1c421"/><path d="M169.81,10.42,162.9,42a131.58,131.58,0,0,1,69.8,35.6L261.79,48.2A149.28,149.28,0,0,0,169.81,10.42Z" fill="#65bb47"/><path d="M51.36,59.06A149.48,149.48,0,0,0,14.6,133,132.18,132.18,0,0,1,59.87,67.7Z" fill="#7b372e"/><path d="M268.33,54.39l-29.4,29.69a131.57,131.57,0,0,1,29.83,56.67l41.94-.33A149.46,149.46,0,0,0,268.33,54.39Z" fill="#41642f"/><path d="M150.61,110.29a8.73,8.73,0,0,0-.39-1.05l-32.3-86.47a4.6,4.6,0,0,0-8.74,2.65l21.14,89.85a8.61,8.61,0,0,0,.26,1.09,10.48,10.48,0,0,0,20-6.07Z" fill="#41642f"/><ellipse cx="140.59" cy="113.32" rx="3.06" ry="2.91" transform="translate(-26.83 45.65) rotate(-16.86)" fill="#f4f3df"/></g></g></svg>