<svg xmlns="http://www.w3.org/2000/svg" viewBox="0 0 324.14 201.86"><g id="Layer_2" data-name="Layer 2"><g id="Journal_Screen_OUT_copy" data-name="Journal Screen OUT copy"><path d="M0,162.07a162.07,162.07,0,0,1,324.14,0" fill="#c4d9b6"/><circle cx="133.32" cy="136.84" r="65.02" transform="translate(-23.11 246.52) rotate(-80.78)" fill="#c4d9b6"/><path d="M234.72,79.58c-21.08-19.71-45.33-31.39-73.48-36,2.94-10.24,5.65-20,8.64-29.71a4.4,4.4,0,0,1,3.44-2.34c33,2.37,62,14,86.86,36.87Z" fill="#f4f3df"/><path d="M67.67,64.84,57.46,52.44C86.5,25.52,120.68,12.72,160.11,11c-2.82,10.49-5.54,20.63-8.44,31.45C121.36,40.88,93.27,48,67.67,64.84Z" fill="#f4f3df"/><path d="M58.87,71.32C41.2,86,27.81,103.25,18.92,124.34,17,111.58,33.37,77.83,49.54,61Z" fill="#f4f3df"/><path d="M67.26,64.49a131.21,131.21,0,0,1,73.36-22.28,133.38,133.38,0,0,1,13.33.67l6.69-30.53a149.35,149.35,0,0,0-103,42.36Z"/><path d="M169.81,12.53,162.9,44.09a131.58,131.58,0,0,1,69.8,35.6l29.09-29.38A149.28,149.28,0,0,0,169.81,12.53Z"/><path d="M51.36,61.17A149.48,149.48,0,0,0,14.6,135.09,132.18,132.18,0,0,1,59.87,69.81Z"/><path d="M268.33,56.49l-29.4,29.7a131.57,131.57,0,0,1,29.83,56.67l41.94-.33A149.52,149.52,0,0,0,268.33,56.49Z"/><path d="M317.15,141.68a157,157,0,0,0-44.21-89.77A6.54,6.54,0,0,0,268.32,50h-.05a6.49,6.49,0,0,0-2.16-4.54A156.72,156.72,0,0,0,170.13,6a6.51,6.51,0,0,0-4.81,1.82,6.33,6.33,0,0,0-4.74-2A155.66,155.66,0,0,0,53.1,50a6.54,6.54,0,0,0-2,4.59v0a6.51,6.51,0,0,0-4.57,2.1A155.89,155.89,0,0,0,8.21,133.91a6.51,6.51,0,0,0,4.85,7.49,6.71,6.71,0,0,0,1.55.19,6.46,6.46,0,0,0,6.2-4.58A124.88,124.88,0,0,1,63.86,75a6.5,6.5,0,0,0,2.42-4,7.93,7.93,0,0,0,1,.08,6.5,6.5,0,0,0,3.62-1.1,124.7,124.7,0,0,1,69.74-21.18c4.22,0,8.49.21,12.68.63a6.47,6.47,0,0,0,4.5-1.22,6.58,6.58,0,0,0,4,2.38,124.57,124.57,0,0,1,66.35,33.84,6.4,6.4,0,0,0,4.28,1.84,6.49,6.49,0,0,0,1.64,4.35,125.41,125.41,0,0,1,28.37,53.86,6.49,6.49,0,0,0,6.36,5h0l41.93-.32a6.5,6.5,0,0,0,6.4-7.35Z" fill="#f4f3df"/><path d="M67.26,62.38A131.21,131.21,0,0,1,140.62,40.1a133.38,133.38,0,0,1,13.33.67l6.69-30.53a149.35,149.35,0,0,0-103,42.36Z" fill="#f1c421"/><path d="M169.81,10.42,162.9,42a131.58,131.58,0,0,1,69.8,35.6L261.79,48.2A149.28,149.28,0,0,0,169.81,10.42Z" fill="#65bb47"/><path d="M51.36,59.06A149.48,149.48,0,0,0,14.6,133,132.18,132.18,0,0,1,59.87,67.7Z" fill="#7b372e"/><path d="M268.33,54.39l-29.4,29.69a131.57,131.57,0,0,1,29.83,56.67l41.94-.33A149.46,149.46,0,0,0,268.33,54.39Z" fill="#41642f"/><path d="M9.78,171.51l4.77,14.84,4.74-14.84h6.77v21.33H20.9v-5l.5-10.2-5.16,15.18H12.85L7.68,177.65l.49,10.21v5H3V171.51Z" fill="#41642f"/><path d="M37.07,193.13A8.18,8.18,0,0,1,31.16,191a7.51,7.51,0,0,1-2.25-5.66v-.41a9.74,9.74,0,0,1,.9-4.29,6.62,6.62,0,0,1,2.63-2.88,7.92,7.92,0,0,1,4.1-1,6.83,6.83,0,0,1,5.27,2.08,8.12,8.12,0,0,1,1.94,5.77v1.92H33.93a3.58,3.58,0,0,0,1.16,2.1,3.44,3.44,0,0,0,2.31.76,4.45,4.45,0,0,0,3.67-1.64l2.25,2.67a6.35,6.35,0,0,1-2.61,2A8.73,8.73,0,0,1,37.07,193.13Zm-.56-12.63c-1.44,0-2.3,1-2.58,2.87h5V183a2.46,2.46,0,0,0-.6-1.84A2.4,2.4,0,0,0,36.51,180.5Z" fill="#41642f"/><path d="M55,192.84a5.66,5.66,0,0,1-.47-1.43,4.58,4.58,0,0,1-3.81,1.72,5.61,5.61,0,0,1-3.81-1.36,4.3,4.3,0,0,1-1.56-3.4,4.43,4.43,0,0,1,1.9-3.9,9.71,9.71,0,0,1,5.54-1.32h1.52v-.84q0-2.19-1.89-2.19a1.55,1.55,0,0,0-1.76,1.74H45.69a4.42,4.42,0,0,1,2-3.73,8.22,8.22,0,0,1,5-1.44,7.24,7.24,0,0,1,4.79,1.48,5.16,5.16,0,0,1,1.8,4.06v7a7.19,7.19,0,0,0,.68,3.34v.25Zm-3.09-3.23a2.8,2.8,0,0,0,1.53-.39,2.47,2.47,0,0,0,.87-.9v-2.53H52.84q-2.58,0-2.58,2.31a1.44,1.44,0,0,0,.45,1.1A1.68,1.68,0,0,0,51.87,189.61Z" fill="#41642f"/><path d="M67.46,192.84H62.51v-22.5h4.95Z" fill="#41642f"/><path d="M215,181.61a12.67,12.67,0,0,1-1,5.16,9,9,0,0,1-2.71,3.54l3.44,2.73-3.18,2.69L207,192a9.32,9.32,0,0,1-1.29.09,9.2,9.2,0,0,1-4.83-1.26,8.48,8.48,0,0,1-3.29-3.61,12.16,12.16,0,0,1-1.23-5.39v-1.12a12.72,12.72,0,0,1,1.15-5.54,8.56,8.56,0,0,1,3.29-3.69,9.72,9.72,0,0,1,9.71,0,8.75,8.75,0,0,1,3.31,3.67,12.38,12.38,0,0,1,1.19,5.46Zm-5.23-.89a9,9,0,0,0-1.06-4.83,3.41,3.41,0,0,0-3-1.65,3.37,3.37,0,0,0-3.06,1.63,9.11,9.11,0,0,0-1,4.76v1a9.27,9.27,0,0,0,1,4.83,3.63,3.63,0,0,0,6.1,0,9,9,0,0,0,1.06-4.76Z" fill="#41642f"/><path d="M230.59,190.12a5.1,5.1,0,0,1-4.24,2,5,5,0,0,1-3.94-1.52,6.34,6.34,0,0,1-1.34-4.36V176H226v10.29a1.78,1.78,0,0,0,2,2,2.59,2.59,0,0,0,2.42-1.22V176h5v15.84h-4.63Z" fill="#41642f"/><path d="M250.74,191.83a5.47,5.47,0,0,1-.46-1.42,4.58,4.58,0,0,1-3.81,1.72,5.58,5.58,0,0,1-3.81-1.36,4.29,4.29,0,0,1-1.57-3.4,4.46,4.46,0,0,1,1.9-3.9,9.71,9.71,0,0,1,5.54-1.32h1.53v-.84q0-2.19-1.89-2.19a1.54,1.54,0,0,0-1.76,1.74h-4.94a4.41,4.41,0,0,1,2-3.73,8.16,8.16,0,0,1,5-1.44,7.22,7.22,0,0,1,4.79,1.48,5.14,5.14,0,0,1,1.81,4.06v7a7.23,7.23,0,0,0,.67,3.34v.24Zm-3.09-3.22a2.76,2.76,0,0,0,1.53-.39,2.5,2.5,0,0,0,.88-.9v-2.53h-1.44q-2.58,0-2.58,2.31a1.38,1.38,0,0,0,.46,1.09A1.61,1.61,0,0,0,247.65,188.61Z" fill="#41642f"/><path d="M266.7,191.83h-5v-22.5h5Z" fill="#41642f"/><path d="M273.45,171.9a2.2,2.2,0,0,1,.76-1.73,3.26,3.26,0,0,1,4,0,2.35,2.35,0,0,1,0,3.46,3.26,3.26,0,0,1-4,0A2.2,2.2,0,0,1,273.45,171.9Zm5.24,19.93h-4.95V176h4.95Z" fill="#41642f"/><path d="M291.23,172v4h2.61v3.42h-2.61v7.25a1.9,1.9,0,0,0,.32,1.25,1.76,1.76,0,0,0,1.28.35,7,7,0,0,0,1.23-.09v3.53a8.93,8.93,0,0,1-2.78.43,5.19,5.19,0,0,1-3.77-1.2,4.93,4.93,0,0,1-1.21-3.65v-7.87h-2V176h2v-4Z" fill="#41642f"/><path d="M305.87,184.92,308.5,176h5.29l-6.46,18.5-.28.67a4.91,4.91,0,0,1-4.86,3.08,7.58,7.58,0,0,1-2-.3v-3.51h.65a3.4,3.4,0,0,0,1.59-.3,1.86,1.86,0,0,0,.81-1.08l.4-1.06-5.51-16h5.27Z" fill="#41642f"/><path d="M91.94,128.57c.18-20.84,17.14-42.9,43-44.44V82.29a25,25,0,0,1-3.49-1.55c-2.72-1.71-2.73-4.4-.13-6.24a10.66,10.66,0,0,1,11.19,0c2.5,1.82,2.51,4.42-.09,6.09a29.59,29.59,0,0,1-3.61,1.67v1.81c14,1,25.26,7.12,33.78,18.22a44.67,44.67,0,0,1,9.2,26.23Zm42.51-46.91v0c-.22-.38-.4-.79-.65-1.14-1.22-1.64-1-3.14.74-4.25.53-.35,1.11-.62,1.86-1a5.38,5.38,0,0,0-4.27,1.39,2,2,0,0,0-.57,2.44C132.1,80.42,132.88,81.52,134.45,81.66Zm-6.53,11.65a8.81,8.81,0,0,0-1.26.12,15.88,15.88,0,0,0-7,3.94,43,43,0,0,0-11.93,20c-.52,1.8-.74,3.69-1.11,5.59h3.89c.06-.78.1-1.48.19-2.17.73-5.86,3.19-11,6.33-15.94A38,38,0,0,1,127.9,93.28l.18-.11Zm-1.75-3.64a26.89,26.89,0,0,0-10.58,4.46A46,46,0,0,0,98.69,117,56.55,56.55,0,0,0,97.25,123H103c.18-1.13.26-2.22.52-3.27a51.62,51.62,0,0,1,12.15-22.49,24.9,24.9,0,0,1,10.1-7.16c.16-.06.25-.3.38-.44l.76.12v-.19Z" fill="#f4f3df"/><path d="M110.61,172.71c-1.25-6.57-2.49-13.06-3.74-19.59.32-.17.58-.33.86-.45,3.71-1.53,7.43-3,11.13-4.6a19.64,19.64,0,0,1,7.74-1.52c5.94,0,11.87,0,17.81,0a3.87,3.87,0,0,1,1.57.35,2.43,2.43,0,0,1,1.58,2.5c-.09,1.18-.92,1.74-2,2l-11.46,2.82c-.68.17-1.35.4-2,.58-.85.23-1.46.69-1.34,1.63a1.61,1.61,0,0,0,1.63,1.41c1.51.15,3,.3,4.55.33,3.32.07,6.64.1,9.95,0a7.7,7.7,0,0,0,2.7-.62c7.25-2.88,14.47-5.81,21.71-8.68a5.74,5.74,0,0,1,2.06-.33c1,0,1.93.23,2.2,1.36a2.32,2.32,0,0,1-.93,2.67c-4.31,3-8.6,5.95-12.93,8.89q-5.91,4-11.9,7.89a3.26,3.26,0,0,1-1.6.52c-8.71.26-17.41.53-26.11.7a42.25,42.25,0,0,0-9.88,1.7Z" fill="#f4f3df"/><path d="M92.37,138.06H133v-1.9h-1.27q-22.31,0-44.62,0a13,13,0,0,1-7.07-2.09,3.42,3.42,0,0,1-1.25-1.54H195.08a7.76,7.76,0,0,1-1.15,1.31,12.29,12.29,0,0,1-6.76,2.3c-1.49,0-3-.05-4.45,0a2.38,2.38,0,0,0-1.44.71c-1.62,1.68-3.16,3.45-4.76,5.15a5.36,5.36,0,0,1-4.19,1.64c-23.93-.05-47.86,0-71.79-.07-3.76,0-6.23-2.41-8.3-5.22Z" fill="#f4f3df"/><path d="M107.13,176.93c-6.37,1.73-9.6,6.3-17,2.47-3.2-6.67-1.94-17.26-1.94-27.29l13-1.87Zm-11.54-4.29a2.83,2.83,0,1,0,2.91-2.74A2.85,2.85,0,0,0,95.59,172.64Z" fill="#f4f3df"/><path d="M258.57,117.56l28.13-1.45c3.6-.19,6.39-2.22,6.37-4.64s-2.87-4.4-6.47-4.5l-33.36-1" fill="#41642f"/><path d="M258.7,120.05l-.26-5,28.13-1.45c2.45-.13,4-1.34,4-2.12s-1.59-1.95-4.05-2l-33.35-1,.14-5,33.36,1c5,.15,8.85,3.14,8.9,7s-3.72,6.9-8.74,7.16Z" fill="#f4f1de"/><path d="M286.6,107,140,102.73a10.47,10.47,0,0,0,.24,20.94l146.47-7.56c3.6-.19,6.39-2.22,6.37-4.64S290.2,107.07,286.6,107Z" fill="#41642f"/><circle cx="140.11" cy="113.2" r="3.06" fill="#f4f3df"/></g></g></svg>